<mxfile host="app.diagrams.net" modified="2024-02-11T19:35:12.639Z" agent="Mozilla/5.0 (Windows NT 10.0; Win64; x64) AppleWebKit/537.36 (KHTML, like Gecko) Chrome/121.0.0.0 Safari/537.36" etag="hIHfpe86Bxy9DBM0x2NK" version="23.1.2" type="device">
  <diagram name="Page-1" id="xqHb2A8Pqyfyblk3TKCt">
    <mxGraphModel dx="364" dy="184" grid="1" gridSize="10" guides="1" tooltips="1" connect="1" arrows="1" fold="1" page="1" pageScale="1" pageWidth="850" pageHeight="1100" math="0" shadow="0">
      <root>
        <mxCell id="0" />
        <mxCell id="1" parent="0" />
        <mxCell id="PgqH4XUq-C3_z86vgJyu-1" value="Board" style="swimlane;fontStyle=0;childLayout=stackLayout;horizontal=1;startSize=26;fillColor=none;horizontalStack=0;resizeParent=1;resizeParentMax=0;resizeLast=0;collapsible=1;marginBottom=0;html=1;" vertex="1" parent="1">
          <mxGeometry x="190" y="110" width="140" height="130" as="geometry" />
        </mxCell>
        <mxCell id="PgqH4XUq-C3_z86vgJyu-2" value="List&amp;lt;Figure&amp;gt; figures" style="text;strokeColor=none;fillColor=none;align=left;verticalAlign=top;spacingLeft=4;spacingRight=4;overflow=hidden;rotatable=0;points=[[0,0.5],[1,0.5]];portConstraint=eastwest;whiteSpace=wrap;html=1;" vertex="1" parent="PgqH4XUq-C3_z86vgJyu-1">
          <mxGeometry y="26" width="140" height="26" as="geometry" />
        </mxCell>
        <mxCell id="PgqH4XUq-C3_z86vgJyu-3" value="int[][] board" style="text;strokeColor=none;fillColor=none;align=left;verticalAlign=top;spacingLeft=4;spacingRight=4;overflow=hidden;rotatable=0;points=[[0,0.5],[1,0.5]];portConstraint=eastwest;whiteSpace=wrap;html=1;" vertex="1" parent="PgqH4XUq-C3_z86vgJyu-1">
          <mxGeometry y="52" width="140" height="26" as="geometry" />
        </mxCell>
        <mxCell id="PgqH4XUq-C3_z86vgJyu-4" value="boolean isGameOver" style="text;strokeColor=none;fillColor=none;align=left;verticalAlign=top;spacingLeft=4;spacingRight=4;overflow=hidden;rotatable=0;points=[[0,0.5],[1,0.5]];portConstraint=eastwest;whiteSpace=wrap;html=1;" vertex="1" parent="PgqH4XUq-C3_z86vgJyu-1">
          <mxGeometry y="78" width="140" height="26" as="geometry" />
        </mxCell>
        <mxCell id="PgqH4XUq-C3_z86vgJyu-13" value="boolean turn" style="text;strokeColor=none;fillColor=none;align=left;verticalAlign=top;spacingLeft=4;spacingRight=4;overflow=hidden;rotatable=0;points=[[0,0.5],[1,0.5]];portConstraint=eastwest;whiteSpace=wrap;html=1;" vertex="1" parent="PgqH4XUq-C3_z86vgJyu-1">
          <mxGeometry y="104" width="140" height="26" as="geometry" />
        </mxCell>
        <mxCell id="PgqH4XUq-C3_z86vgJyu-9" value="" style="rounded=0;whiteSpace=wrap;html=1;" vertex="1" parent="1">
          <mxGeometry x="190" y="240" width="140" height="56" as="geometry" />
        </mxCell>
        <mxCell id="PgqH4XUq-C3_z86vgJyu-10" value="performMove()" style="text;strokeColor=none;fillColor=none;align=left;verticalAlign=top;spacingLeft=4;spacingRight=4;overflow=hidden;rotatable=0;points=[[0,0.5],[1,0.5]];portConstraint=eastwest;whiteSpace=wrap;html=1;" vertex="1" parent="1">
          <mxGeometry x="190" y="240" width="140" height="26" as="geometry" />
        </mxCell>
        <mxCell id="PgqH4XUq-C3_z86vgJyu-11" value="checkGameOver()" style="text;strokeColor=none;fillColor=none;align=left;verticalAlign=top;spacingLeft=4;spacingRight=4;overflow=hidden;rotatable=0;points=[[0,0.5],[1,0.5]];portConstraint=eastwest;whiteSpace=wrap;html=1;" vertex="1" parent="1">
          <mxGeometry x="190" y="266" width="140" height="24" as="geometry" />
        </mxCell>
        <mxCell id="PgqH4XUq-C3_z86vgJyu-19" style="edgeStyle=orthogonalEdgeStyle;rounded=0;orthogonalLoop=1;jettySize=auto;html=1;exitX=-0.002;exitY=0.09;exitDx=0;exitDy=0;endArrow=diamondThin;endFill=1;strokeWidth=2;exitPerimeter=0;entryX=0.998;entryY=0.075;entryDx=0;entryDy=0;entryPerimeter=0;" edge="1" parent="1">
          <mxGeometry relative="1" as="geometry">
            <mxPoint x="449.7199999999999" y="121.00000000000001" as="sourcePoint" />
            <mxPoint x="329.72" y="121.39" as="targetPoint" />
            <Array as="points">
              <mxPoint x="395" y="120.64" />
            </Array>
          </mxGeometry>
        </mxCell>
        <mxCell id="PgqH4XUq-C3_z86vgJyu-14" value="&lt;i&gt;Figure&lt;/i&gt;" style="swimlane;fontStyle=0;childLayout=stackLayout;horizontal=1;startSize=26;fillColor=none;horizontalStack=0;resizeParent=1;resizeParentMax=0;resizeLast=0;collapsible=1;marginBottom=0;html=1;" vertex="1" parent="1">
          <mxGeometry x="450" y="110" width="180" height="78" as="geometry" />
        </mxCell>
        <mxCell id="PgqH4XUq-C3_z86vgJyu-15" value="boolean color" style="text;strokeColor=none;fillColor=none;align=left;verticalAlign=top;spacingLeft=4;spacingRight=4;overflow=hidden;rotatable=0;points=[[0,0.5],[1,0.5]];portConstraint=eastwest;whiteSpace=wrap;html=1;" vertex="1" parent="PgqH4XUq-C3_z86vgJyu-14">
          <mxGeometry y="26" width="180" height="26" as="geometry" />
        </mxCell>
        <mxCell id="PgqH4XUq-C3_z86vgJyu-16" value="String name" style="text;strokeColor=none;fillColor=none;align=left;verticalAlign=top;spacingLeft=4;spacingRight=4;overflow=hidden;rotatable=0;points=[[0,0.5],[1,0.5]];portConstraint=eastwest;whiteSpace=wrap;html=1;" vertex="1" parent="PgqH4XUq-C3_z86vgJyu-14">
          <mxGeometry y="52" width="180" height="26" as="geometry" />
        </mxCell>
        <mxCell id="PgqH4XUq-C3_z86vgJyu-20" value="" style="rounded=0;whiteSpace=wrap;html=1;" vertex="1" parent="1">
          <mxGeometry x="450" y="188" width="180" height="32" as="geometry" />
        </mxCell>
        <mxCell id="PgqH4XUq-C3_z86vgJyu-21" value="abstract Move makeMove()" style="text;strokeColor=none;fillColor=none;align=left;verticalAlign=top;spacingLeft=4;spacingRight=4;overflow=hidden;rotatable=0;points=[[0,0.5],[1,0.5]];portConstraint=eastwest;whiteSpace=wrap;html=1;" vertex="1" parent="1">
          <mxGeometry x="450" y="188" width="180" height="26" as="geometry" />
        </mxCell>
        <mxCell id="PgqH4XUq-C3_z86vgJyu-23" value="King" style="swimlane;fontStyle=0;childLayout=stackLayout;horizontal=1;startSize=26;fillColor=none;horizontalStack=0;resizeParent=1;resizeParentMax=0;resizeLast=0;collapsible=1;marginBottom=0;html=1;" vertex="1" parent="1">
          <mxGeometry x="260" y="360" width="140" height="52" as="geometry" />
        </mxCell>
        <mxCell id="PgqH4XUq-C3_z86vgJyu-42" value="" style="endArrow=classic;html=1;rounded=0;exitX=0.85;exitY=0.02;exitDx=0;exitDy=0;exitPerimeter=0;" edge="1" parent="PgqH4XUq-C3_z86vgJyu-23" source="PgqH4XUq-C3_z86vgJyu-33">
          <mxGeometry width="50" height="50" relative="1" as="geometry">
            <mxPoint x="110" y="70" as="sourcePoint" />
            <mxPoint x="270" y="-140" as="targetPoint" />
          </mxGeometry>
        </mxCell>
        <mxCell id="PgqH4XUq-C3_z86vgJyu-24" value="Move makeMove()" style="text;strokeColor=none;fillColor=none;align=left;verticalAlign=top;spacingLeft=4;spacingRight=4;overflow=hidden;rotatable=0;points=[[0,0.5],[1,0.5]];portConstraint=eastwest;whiteSpace=wrap;html=1;" vertex="1" parent="PgqH4XUq-C3_z86vgJyu-23">
          <mxGeometry y="26" width="140" height="26" as="geometry" />
        </mxCell>
        <mxCell id="PgqH4XUq-C3_z86vgJyu-27" value="Queen" style="swimlane;fontStyle=0;childLayout=stackLayout;horizontal=1;startSize=26;fillColor=none;horizontalStack=0;resizeParent=1;resizeParentMax=0;resizeLast=0;collapsible=1;marginBottom=0;html=1;" vertex="1" parent="1">
          <mxGeometry x="430" y="360" width="140" height="52" as="geometry" />
        </mxCell>
        <mxCell id="PgqH4XUq-C3_z86vgJyu-43" value="" style="endArrow=classic;html=1;rounded=0;exitX=0.157;exitY=-0.027;exitDx=0;exitDy=0;exitPerimeter=0;" edge="1" parent="PgqH4XUq-C3_z86vgJyu-27" source="PgqH4XUq-C3_z86vgJyu-35">
          <mxGeometry width="50" height="50" relative="1" as="geometry">
            <mxPoint x="100" y="70" as="sourcePoint" />
            <mxPoint x="120" y="-140" as="targetPoint" />
          </mxGeometry>
        </mxCell>
        <mxCell id="PgqH4XUq-C3_z86vgJyu-28" value="Move makeMove()" style="text;strokeColor=none;fillColor=none;align=left;verticalAlign=top;spacingLeft=4;spacingRight=4;overflow=hidden;rotatable=0;points=[[0,0.5],[1,0.5]];portConstraint=eastwest;whiteSpace=wrap;html=1;" vertex="1" parent="PgqH4XUq-C3_z86vgJyu-27">
          <mxGeometry y="26" width="140" height="26" as="geometry" />
        </mxCell>
        <mxCell id="PgqH4XUq-C3_z86vgJyu-29" value="Rook" style="swimlane;fontStyle=0;childLayout=stackLayout;horizontal=1;startSize=26;fillColor=none;horizontalStack=0;resizeParent=1;resizeParentMax=0;resizeLast=0;collapsible=1;marginBottom=0;html=1;" vertex="1" parent="1">
          <mxGeometry x="770" y="360" width="140" height="52" as="geometry" />
        </mxCell>
        <mxCell id="PgqH4XUq-C3_z86vgJyu-30" value="Move makeMove()" style="text;strokeColor=none;fillColor=none;align=left;verticalAlign=top;spacingLeft=4;spacingRight=4;overflow=hidden;rotatable=0;points=[[0,0.5],[1,0.5]];portConstraint=eastwest;whiteSpace=wrap;html=1;" vertex="1" parent="PgqH4XUq-C3_z86vgJyu-29">
          <mxGeometry y="26" width="140" height="26" as="geometry" />
        </mxCell>
        <mxCell id="PgqH4XUq-C3_z86vgJyu-31" value="Knight" style="swimlane;fontStyle=0;childLayout=stackLayout;horizontal=1;startSize=26;fillColor=none;horizontalStack=0;resizeParent=1;resizeParentMax=0;resizeLast=0;collapsible=1;marginBottom=0;html=1;" vertex="1" parent="1">
          <mxGeometry x="600" y="360" width="140" height="52" as="geometry" />
        </mxCell>
        <mxCell id="PgqH4XUq-C3_z86vgJyu-32" value="Move makeMove()" style="text;strokeColor=none;fillColor=none;align=left;verticalAlign=top;spacingLeft=4;spacingRight=4;overflow=hidden;rotatable=0;points=[[0,0.5],[1,0.5]];portConstraint=eastwest;whiteSpace=wrap;html=1;" vertex="1" parent="PgqH4XUq-C3_z86vgJyu-31">
          <mxGeometry y="26" width="140" height="26" as="geometry" />
        </mxCell>
        <mxCell id="PgqH4XUq-C3_z86vgJyu-33" value="Bishop" style="swimlane;fontStyle=0;childLayout=stackLayout;horizontal=1;startSize=26;fillColor=none;horizontalStack=0;resizeParent=1;resizeParentMax=0;resizeLast=0;collapsible=1;marginBottom=0;html=1;" vertex="1" parent="1">
          <mxGeometry x="430" y="430" width="140" height="52" as="geometry" />
        </mxCell>
        <mxCell id="PgqH4XUq-C3_z86vgJyu-34" value="Move makeMove()" style="text;strokeColor=none;fillColor=none;align=left;verticalAlign=top;spacingLeft=4;spacingRight=4;overflow=hidden;rotatable=0;points=[[0,0.5],[1,0.5]];portConstraint=eastwest;whiteSpace=wrap;html=1;" vertex="1" parent="PgqH4XUq-C3_z86vgJyu-33">
          <mxGeometry y="26" width="140" height="26" as="geometry" />
        </mxCell>
        <mxCell id="PgqH4XUq-C3_z86vgJyu-35" value="Pawn" style="swimlane;fontStyle=0;childLayout=stackLayout;horizontal=1;startSize=26;fillColor=none;horizontalStack=0;resizeParent=1;resizeParentMax=0;resizeLast=0;collapsible=1;marginBottom=0;html=1;" vertex="1" parent="1">
          <mxGeometry x="600" y="430" width="140" height="52" as="geometry" />
        </mxCell>
        <mxCell id="PgqH4XUq-C3_z86vgJyu-36" value="Move makeMove()" style="text;strokeColor=none;fillColor=none;align=left;verticalAlign=top;spacingLeft=4;spacingRight=4;overflow=hidden;rotatable=0;points=[[0,0.5],[1,0.5]];portConstraint=eastwest;whiteSpace=wrap;html=1;" vertex="1" parent="PgqH4XUq-C3_z86vgJyu-35">
          <mxGeometry y="26" width="140" height="26" as="geometry" />
        </mxCell>
        <mxCell id="PgqH4XUq-C3_z86vgJyu-38" value="" style="endArrow=classic;html=1;rounded=0;entryX=0.136;entryY=1.041;entryDx=0;entryDy=0;entryPerimeter=0;" edge="1" parent="1" target="PgqH4XUq-C3_z86vgJyu-20">
          <mxGeometry width="50" height="50" relative="1" as="geometry">
            <mxPoint x="330" y="360" as="sourcePoint" />
            <mxPoint x="380" y="310" as="targetPoint" />
          </mxGeometry>
        </mxCell>
        <mxCell id="PgqH4XUq-C3_z86vgJyu-39" value="" style="endArrow=classic;html=1;rounded=0;" edge="1" parent="1">
          <mxGeometry width="50" height="50" relative="1" as="geometry">
            <mxPoint x="500" y="360" as="sourcePoint" />
            <mxPoint x="500" y="220" as="targetPoint" />
          </mxGeometry>
        </mxCell>
        <mxCell id="PgqH4XUq-C3_z86vgJyu-40" value="" style="endArrow=classic;html=1;rounded=0;entryX=0.691;entryY=1.041;entryDx=0;entryDy=0;entryPerimeter=0;" edge="1" parent="1" target="PgqH4XUq-C3_z86vgJyu-20">
          <mxGeometry width="50" height="50" relative="1" as="geometry">
            <mxPoint x="650" y="360" as="sourcePoint" />
            <mxPoint x="540" y="220" as="targetPoint" />
          </mxGeometry>
        </mxCell>
        <mxCell id="PgqH4XUq-C3_z86vgJyu-41" value="" style="endArrow=classic;html=1;rounded=0;entryX=0.897;entryY=1.022;entryDx=0;entryDy=0;entryPerimeter=0;" edge="1" parent="1" target="PgqH4XUq-C3_z86vgJyu-20">
          <mxGeometry width="50" height="50" relative="1" as="geometry">
            <mxPoint x="840" y="360" as="sourcePoint" />
            <mxPoint x="890" y="310" as="targetPoint" />
          </mxGeometry>
        </mxCell>
        <mxCell id="PgqH4XUq-C3_z86vgJyu-46" value="Move" style="swimlane;fontStyle=0;childLayout=stackLayout;horizontal=1;startSize=26;fillColor=none;horizontalStack=0;resizeParent=1;resizeParentMax=0;resizeLast=0;collapsible=1;marginBottom=0;html=1;" vertex="1" parent="1">
          <mxGeometry x="740" y="110" width="140" height="78" as="geometry" />
        </mxCell>
        <mxCell id="PgqH4XUq-C3_z86vgJyu-47" value="int x" style="text;strokeColor=none;fillColor=none;align=left;verticalAlign=top;spacingLeft=4;spacingRight=4;overflow=hidden;rotatable=0;points=[[0,0.5],[1,0.5]];portConstraint=eastwest;whiteSpace=wrap;html=1;" vertex="1" parent="PgqH4XUq-C3_z86vgJyu-46">
          <mxGeometry y="26" width="140" height="26" as="geometry" />
        </mxCell>
        <mxCell id="PgqH4XUq-C3_z86vgJyu-48" value="int y" style="text;strokeColor=none;fillColor=none;align=left;verticalAlign=top;spacingLeft=4;spacingRight=4;overflow=hidden;rotatable=0;points=[[0,0.5],[1,0.5]];portConstraint=eastwest;whiteSpace=wrap;html=1;" vertex="1" parent="PgqH4XUq-C3_z86vgJyu-46">
          <mxGeometry y="52" width="140" height="26" as="geometry" />
        </mxCell>
        <mxCell id="PgqH4XUq-C3_z86vgJyu-51" value="" style="rounded=0;whiteSpace=wrap;html=1;" vertex="1" parent="1">
          <mxGeometry x="740" y="188" width="140" height="56" as="geometry" />
        </mxCell>
        <mxCell id="PgqH4XUq-C3_z86vgJyu-52" value="getX()" style="text;strokeColor=none;fillColor=none;align=left;verticalAlign=top;spacingLeft=4;spacingRight=4;overflow=hidden;rotatable=0;points=[[0,0.5],[1,0.5]];portConstraint=eastwest;whiteSpace=wrap;html=1;" vertex="1" parent="1">
          <mxGeometry x="740" y="188" width="140" height="26" as="geometry" />
        </mxCell>
        <mxCell id="PgqH4XUq-C3_z86vgJyu-53" value="getY()" style="text;strokeColor=none;fillColor=none;align=left;verticalAlign=top;spacingLeft=4;spacingRight=4;overflow=hidden;rotatable=0;points=[[0,0.5],[1,0.5]];portConstraint=eastwest;whiteSpace=wrap;html=1;" vertex="1" parent="1">
          <mxGeometry x="740" y="214" width="140" height="24" as="geometry" />
        </mxCell>
        <mxCell id="PgqH4XUq-C3_z86vgJyu-54" value="" style="endArrow=diamondThin;html=1;rounded=0;entryX=0.998;entryY=0.177;entryDx=0;entryDy=0;entryPerimeter=0;exitX=-0.001;exitY=0.185;exitDx=0;exitDy=0;exitPerimeter=0;endFill=0;strokeWidth=2;" edge="1" parent="1" source="PgqH4XUq-C3_z86vgJyu-46" target="PgqH4XUq-C3_z86vgJyu-14">
          <mxGeometry width="50" height="50" relative="1" as="geometry">
            <mxPoint x="670" y="140" as="sourcePoint" />
            <mxPoint x="720" y="90" as="targetPoint" />
          </mxGeometry>
        </mxCell>
      </root>
    </mxGraphModel>
  </diagram>
</mxfile>
